/* XPM */
static char * wall_south_xpm[] = {
"32 32 2 1",
"  c #FFFFFF", // White color
". c #000000", // Black color
"                                ",
"                                ",
"                                ",
"                                ",
"                                ",
"                                ",
"                                ",
"                                ",
"                                ",
"                                ",
"          ..................    ",
"          ..................    ",
"          ..................    ",
"          ..................    ",
"          ..................    ",
"          ..................    ",
"          ..................    ",
"                                ",
"                                ",
"                                ",
"                                ",
"                                ",
"                                ",
"                                ",
"                                ",
"                                ",
"                                ",
"                                ",
"                                ",
"                                ",
"                                ",
"                                ",
"                                ",
"                                ",
"                                "
};
